<svg xmlns="http://www.w3.org/2000/svg" width="1280" height="800" viewBox="0 0 1280 800">
  <defs>
    <linearGradient id="g" x1="0" y1="0" x2="1" y2="1">
      <stop offset="0" stop-color="#f59e0b"/>
      <stop offset="1" stop-color="#ea580c"/>
    </linearGradient>
  </defs>
  <rect width="1280" height="800" fill="#2a1606"/>
  <rect x="0" y="0" width="1280" height="56" fill="#f1f5f9"/>
  <circle cx="32" cy="28" r="7" fill="#ef4444"/>
  <circle cx="56" cy="28" r="7" fill="#f59e0b"/>
  <circle cx="80" cy="28" r="7" fill="#22c55e"/>
  <rect x="120" y="16" width="520" height="24" rx="12" fill="#e2e8f0"/>
  <rect x="0" y="56" width="1280" height="744" fill="url(#g)"/>
  <text x="60" y="250" font-family="Arial, sans-serif" font-size="74" font-weight="800" fill="#ffffff">Automation BDD</text>
  <text x="64" y="312" font-family="Arial, sans-serif" font-size="28" fill="#ffffff" opacity="0.85">Scripts Python / SQL &amp; synchronisation</text>
  <!-- faux terminal / pipeline -->
  <rect x="60" y="380" width="1160" height="340" rx="24" fill="#0f172a" opacity="0.55"/>
  <rect x="100" y="420" width="360" height="18" rx="9" fill="#fde68a" opacity="0.9"/>
  <rect x="100" y="458" width="600" height="18" rx="9" fill="#ffffff" opacity="0.5"/>
  <rect x="100" y="496" width="500" height="18" rx="9" fill="#ffffff" opacity="0.5"/>
  <rect x="100" y="534" width="680" height="18" rx="9" fill="#86efac" opacity="0.85"/>
  <rect x="100" y="572" width="420" height="18" rx="9" fill="#ffffff" opacity="0.5"/>
  <rect x="100" y="610" width="560" height="18" rx="9" fill="#ffffff" opacity="0.5"/>
  <rect x="100" y="648" width="300" height="18" rx="9" fill="#fda4af" opacity="0.85"/>
</svg>
