<svg xmlns="http://www.w3.org/2000/svg" width="1280" height="800" viewBox="0 0 1280 800">
  <defs>
    <linearGradient id="g" x1="0" y1="0" x2="1" y2="1">
      <stop offset="0" stop-color="#10b981"/>
      <stop offset="1" stop-color="#0d9488"/>
    </linearGradient>
  </defs>
  <rect width="1280" height="800" fill="#06251f"/>
  <rect x="0" y="0" width="1280" height="56" fill="#f1f5f9"/>
  <circle cx="32" cy="28" r="7" fill="#ef4444"/>
  <circle cx="56" cy="28" r="7" fill="#f59e0b"/>
  <circle cx="80" cy="28" r="7" fill="#22c55e"/>
  <rect x="120" y="16" width="520" height="24" rx="12" fill="#e2e8f0"/>
  <rect x="0" y="56" width="1280" height="744" fill="url(#g)"/>
  <rect x="60" y="108" width="120" height="22" rx="11" fill="#ffffff" opacity="0.9"/>
  <rect x="980" y="102" width="160" height="36" rx="18" fill="#ffffff" opacity="0.95"/>
  <text x="60" y="370" font-family="Arial, sans-serif" font-size="92" font-weight="800" fill="#ffffff">CRM Odoo</text>
  <text x="64" y="438" font-family="Arial, sans-serif" font-size="30" fill="#ffffff" opacity="0.85">Gestion commerciale &amp; automatisation</text>
  <rect x="60" y="510" width="540" height="200" rx="20" fill="#ffffff" opacity="0.15"/>
  <rect x="630" y="510" width="260" height="92" rx="16" fill="#ffffff" opacity="0.12"/>
  <rect x="630" y="618" width="260" height="92" rx="16" fill="#ffffff" opacity="0.1"/>
  <rect x="920" y="510" width="280" height="200" rx="20" fill="#ffffff" opacity="0.09"/>
</svg>
